<svg width="20" height="20" viewBox="0 0 20 20" fill="none" xmlns="http://www.w3.org/2000/svg">
<path opacity="0.987" fill-rule="evenodd" clip-rule="evenodd" d="M8.91237 0.458897C9.90925 0.347522 10.4991 0.347522 11.5702 0.458897C13.4663 0.739528 15.2239 1.61594 16.589 2.9614C15.6665 3.83333 14.7562 4.718 13.8582 5.61515C12.1386 4.15765 10.2191 3.82123 8.09975 4.6059C6.54508 5.3209 5.4625 6.47956 4.852 8.0819C3.85435 7.33916 2.8697 6.57913 1.8985 5.80215C1.831 5.76662 1.75391 5.75361 1.6785 5.76502C3.22125 2.79044 5.63208 1.02127 8.911 0.457522" fill="#F44336"/>
<path opacity="0.997" fill-rule="evenodd" clip-rule="evenodd" d="M1.67575 5.765C1.75366 5.75309 1.82745 5.76546 1.89712 5.80213C2.86833 6.57911 3.85298 7.33915 4.85062 8.08188C4.69363 8.70621 4.59467 9.34371 4.555 9.98625C4.58891 10.6078 4.68745 11.2178 4.85062 11.8164L1.75 14.2845C0.399746 11.463 0.374996 8.62317 1.67575 5.765Z" fill="#FFC107"/>
<path opacity="0.999" fill-rule="evenodd" clip-rule="evenodd" d="M16.4419 17.2738C15.4764 16.4223 14.4657 15.6237 13.4141 14.8813C14.4683 14.1369 15.1081 13.1158 15.3336 11.8178H10.1677V8.23039C13.1469 8.20564 16.1247 8.23085 19.1011 8.30601C19.6658 11.3723 19.0136 14.1369 17.1445 16.6C16.9222 16.8363 16.6868 17.0611 16.4419 17.2738Z" fill="#448AFF"/>
<path opacity="0.993" fill-rule="evenodd" clip-rule="evenodd" d="M4.85063 11.8177C5.97813 14.62 8.04521 15.9281 11.0519 15.742C11.8959 15.6443 12.7051 15.3494 13.4141 14.8812C14.4665 15.6256 15.4757 16.4231 16.4419 17.2737C14.911 18.6494 12.9592 19.4656 10.9047 19.5892C10.438 19.6266 9.96901 19.6266 9.50225 19.5892C6.00242 19.1767 3.41833 17.4085 1.75 14.2845L4.85063 11.8177Z" fill="#43A047"/>
</svg>
